# xmcd
#
# Track frame offsets:
#	150
#	12506
#	23743
#	33102
#	43640
#	53110
#	63009
#	74325
#	85249
#	99480
#
# Disc length: 1459 seconds
#
# Revision: 0
# Processed by: cddbd v1.5.2PL0 Copyright (c) Steve Scherf et al.
# Submitted via: EasyCDDAExtractor 10.0.2.1
#
DISCID=7505b10a
DTITLE=Billie Jo Spears - Country Girl
DYEAR=1970
DGENRE=Country
TTITLE0=Marty Gray
TTITLE1=Hello Darlin'
TTITLE2=Part Of You
TTITLE3=Wander Of You
TTITLE4=Your's Love
TTITLE5=Big Stick Of Dynamite
TTITLE6=Heart Over Mind
TTITLE7=Come On Home
TTITLE8=Which Way You Goin', Billy
TTITLE9=I Stayed Long Enough
EXTD=
EXTT0=
EXTT1=
EXTT2=
EXTT3=
EXTT4=
EXTT5=
EXTT6=
EXTT7=
EXTT8=
EXTT9=
PLAYORDER=
